<svg width="640" height="480" xmlns="http://www.w3.org/2000/svg">
 <!-- Created with SVG-edit - http://svg-edit.googlecode.com/ -->
 <g>
  <title>Layer 1</title>
  <ellipse id="svg_22" stroke="#000000" ry="81.499997" rx="82.000003" cy="168.999997" cx="215.000003" stroke-linecap="null" stroke-linejoin="null" stroke-dasharray="null" stroke-width="0" fill="#ffaaaa"/>
  <ellipse stroke="#000000" ry="81.499997" rx="82.000003" id="svg_20" cy="168.499997" cx="432.000003" stroke-linecap="null" stroke-linejoin="null" stroke-dasharray="null" stroke-width="0" fill="#ffaaaa"/>
  <ellipse ry="13" rx="10" id="svg_8" cy="213" cx="278" stroke-linecap="null" stroke-linejoin="null" stroke-dasharray="null" stroke-width="0" stroke="#000000" fill="#0a0909"/>
  <ellipse id="svg_9" ry="13" rx="10" cy="240" cx="320" stroke-linecap="null" stroke-linejoin="null" stroke-dasharray="null" stroke-width="0" stroke="#000000" fill="#0a0909"/>
  <ellipse id="svg_10" ry="13" rx="10" cy="240" cx="320" stroke-linecap="null" stroke-linejoin="null" stroke-dasharray="null" stroke-width="0" stroke="#000000" fill="#0a0909"/>
  <ellipse id="svg_12" ry="13" rx="10" cy="217" cx="261" stroke-linecap="null" stroke-linejoin="null" stroke-dasharray="null" stroke-width="0" stroke="#000000" fill="#0a0909"/>
  <ellipse id="svg_13" ry="13" rx="10" cy="226" cx="264" stroke-linecap="null" stroke-linejoin="null" stroke-dasharray="null" stroke-width="0" stroke="#000000" fill="#0a0909"/>
  <ellipse stroke="#000000" ry="146.500002" rx="153" id="svg_4" cy="281.500002" cx="317" stroke-linecap="null" stroke-linejoin="null" stroke-dasharray="null" stroke-width="0" fill="#efaabf"/>
  <ellipse ry="43" rx="20" id="svg_6" cy="314" cx="285" stroke-linecap="null" stroke-linejoin="null" stroke-dasharray="null" stroke-width="0" stroke="#000000" fill="#b57588"/>
  <ellipse id="svg_7" ry="43" rx="20" cy="314" cx="345" stroke-linecap="null" stroke-linejoin="null" stroke-dasharray="null" stroke-width="0" stroke="#000000" fill="#b57588"/>
  <ellipse id="svg_14" ry="13" rx="10" cy="230" cx="262" stroke-linecap="null" stroke-linejoin="null" stroke-dasharray="null" stroke-width="0" stroke="#000000" fill="#0a0909"/>
  <ellipse id="svg_15" ry="13" rx="10" cy="230" cx="363" stroke-linecap="null" stroke-linejoin="null" stroke-dasharray="null" stroke-width="0" stroke="#000000" fill="#0a0909"/>
  <polyline fill-opacity="0" id="svg_24" points="276,66 276,66 " stroke-linecap="round" stroke-linejoin="null" stroke-dasharray="null" stroke-width="0" stroke="#000000" fill="none"/>
  <path d="m477,31c0,1 0,3 0,8c0,1 -0.276001,4.222729 3,8c3.70639,4.273495 9.875763,11.094692 16,19c7.842834,10.123734 20.657349,18.493721 32,26c9.72522,6.435883 16,8 23,9l4,1l2,0l2,0" id="svg_26" stroke-linecap="null" stroke-linejoin="null" stroke-dasharray="null" stroke-width="0" stroke="#000000" fill="none"/>
  <path d="m524,51c0,1 0,8 0,17c0,15 0,31 0,43c0,17 0,24 0,26l0,1l0,-1" id="svg_27" stroke-linecap="null" stroke-linejoin="null" stroke-dasharray="null" stroke-width="0" stroke="#000000" fill="none"/>
  <path d="m572,201c0,2 0,19 0,40c0,15 0,28 0,41c0,6 0,9 0,10l0,1l1,1" id="svg_28" stroke-linecap="null" stroke-linejoin="null" stroke-dasharray="null" stroke-width="0" stroke="#000000" fill="none"/>
  <path d="m444,390c1,0 8,0 21,0c7,0 17,0 19,0l1,0" id="svg_29" stroke-linecap="null" stroke-linejoin="null" stroke-dasharray="null" stroke-width="0" stroke="#000000" fill="#ffaaaa"/>
  <path d="m63,50c0,0 0,9 0,21c0,17 0,37 0,55c0,19 0,32 0,40c0,7 0,12 0,15c0,3 0,5 0,6l0,1l0,1" id="svg_30" stroke-linecap="null" stroke-linejoin="null" stroke-dasharray="null" stroke-width="0" stroke="#000000" fill="none"/>
 </g>
</svg>